<svg xmlns="http://www.w3.org/2000/svg" viewBox="0 0 420 280">
<defs><filter id="fkyoto" x="-30%" y="-30%" width="160%" height="180%"><feMorphology in="SourceAlpha" operator="dilate" radius="3" result="d"/><feFlood flood-color="#fff" result="w"/><feComposite in="w" in2="d" operator="in" result="o"/><feGaussianBlur in="SourceAlpha" stdDeviation="3" result="b"/><feOffset in="b" dy="5" result="off"/><feFlood flood-color="#2c1b12" flood-opacity=".30" result="sc"/><feComposite in="sc" in2="off" operator="in" result="s"/><feMerge><feMergeNode in="s"/><feMergeNode in="o"/><feMergeNode in="SourceGraphic"/></feMerge></filter></defs>
<g filter="url(#fkyoto)"><rect x="102" y="210" width="216" height="16" rx="4" fill="#788b4b"/><rect x="126" y="151" width="168" height="61" fill="#5b3322"/><rect x="145" y="103" width="130" height="48" fill="#d7a22e"/><rect x="166" y="67" width="88" height="37" fill="#e0b43d"/><g fill="#6c321d"><path d="M99 149 Q210 170 321 149 Q298 168 278 169 H142 Q121 168 99 149Z"/><path d="M120 101 Q210 120 300 101 Q280 119 263 120 H157 Q139 119 120 101Z"/><path d="M145 65 Q210 80 275 65 Q257 81 244 81 H176 Q162 80 145 65Z"/></g><g fill="#f1bd35"><rect x="142" y="122" width="136" height="8"/><rect x="158" y="81" width="104" height="7"/><rect x="146" y="113" width="6" height="30"/><rect x="170" y="113" width="6" height="30"/><rect x="194" y="113" width="6" height="30"/><rect x="220" y="113" width="6" height="30"/><rect x="244" y="113" width="6" height="30"/><rect x="268" y="113" width="6" height="30"/><rect x="165" y="75" width="5" height="23"/><rect x="188" y="75" width="5" height="23"/><rect x="211" y="75" width="5" height="23"/><rect x="234" y="75" width="5" height="23"/><rect x="257" y="75" width="5" height="23"/></g><g fill="#321f18"><rect x="147" y="166" width="22" height="46"/><rect x="177" y="166" width="22" height="46"/><rect x="207" y="166" width="22" height="46"/><rect x="237" y="166" width="22" height="46"/><rect x="267" y="166" width="18" height="46"/></g><path d="M210 55 q-4-11 5-16 q-2 8 6 9 q-8 2-11 7z" fill="#c78c1f"/></g></svg>